<svg width="27" height="27" viewBox="0 0 27 27" fill="none" xmlns="http://www.w3.org/2000/svg">
<path d="M18.637 24.7489H18.6685C19.2625 24.7489 19.8239 24.5149 20.2491 24.0896L23.3001 21.0386C23.4047 20.9342 23.4876 20.8103 23.5442 20.6738C23.6008 20.5373 23.63 20.391 23.63 20.2432C23.63 20.0955 23.6008 19.9492 23.5442 19.8127C23.4876 19.6762 23.4047 19.5523 23.3001 19.4479L18.8001 14.9479C18.6957 14.8433 18.5718 14.7604 18.4353 14.7038C18.2988 14.6472 18.1525 14.618 18.0047 14.618C17.857 14.618 17.7107 14.6472 17.5742 14.7038C17.4377 14.7604 17.3138 14.8433 17.2094 14.9479L15.4161 16.7411C14.5847 16.4936 13.0334 15.9311 12.0501 14.9479C11.0669 13.9646 10.5044 12.4132 10.2569 11.5819L12.0501 9.78863C12.1547 9.68424 12.2376 9.56026 12.2942 9.42378C12.3508 9.2873 12.38 9.141 12.38 8.99325C12.38 8.8455 12.3508 8.6992 12.2942 8.56272C12.2376 8.42624 12.1547 8.30226 12.0501 8.19788L7.55012 3.69787C7.33505 3.49487 7.05049 3.38179 6.75474 3.38179C6.459 3.38179 6.17444 3.49487 5.95937 3.69787L2.90949 6.74888C2.48199 7.17638 2.24124 7.76362 2.25024 8.36325C2.27612 9.96525 2.70024 15.5295 7.08549 19.9147C11.4707 24.3 17.035 24.723 18.637 24.7489ZM6.75587 6.084L9.66512 8.99325L8.21049 10.4479C8.07812 10.5799 7.98088 10.7429 7.92763 10.9221C7.87438 11.1013 7.86681 11.291 7.90562 11.4739C7.93262 11.6033 8.59299 14.6711 10.4605 16.5386C12.328 18.4061 15.3959 19.0665 15.5252 19.0935C15.7081 19.1325 15.8978 19.125 16.0771 19.0718C16.2563 19.0185 16.4194 18.9212 16.5512 18.7886L18.0059 17.334L20.9151 20.2432L18.6584 22.4989C17.2544 22.4753 12.4506 22.0984 8.67624 18.3229C4.88949 14.5361 4.52274 9.7155 4.50024 8.33963L6.75587 6.084ZM22.43 11.251C22.5072 11.8675 23.0028 12.3739 23.6241 12.3739C24.2454 12.3739 24.7554 11.8685 24.693 11.2503C24.2047 6.4142 20.5793 2.79301 15.7364 2.30591C15.1182 2.24373 14.6129 2.75368 14.6129 3.375C14.6129 3.99632 15.1192 4.49194 15.7358 4.56875C19.3508 5.0191 21.9783 7.64175 22.43 11.251Z" fill="#DFE3EC"/>
<path d="M14.624 7.875C14.624 8.49632 15.1339 8.97786 15.7442 9.09474C16.9794 9.33133 17.6677 10.0196 17.9043 11.2549C18.0212 11.8651 18.5027 12.375 19.124 12.375C19.7453 12.375 20.2598 11.8679 20.1789 11.2519C19.843 8.69182 18.3072 7.15606 15.7471 6.82009C15.1311 6.73924 14.624 7.25368 14.624 7.875Z" fill="#DFE3EC"/>
</svg>
