<svg width="23" height="23" viewBox="0 0 23 23" fill="none" xmlns="http://www.w3.org/2000/svg">
<path d="M16.637 22.7489H16.6685C17.2625 22.7489 17.8239 22.5149 18.2491 22.0896L21.3001 19.0386C21.4047 18.9342 21.4876 18.8103 21.5442 18.6738C21.6008 18.5373 21.63 18.391 21.63 18.2432C21.63 18.0955 21.6008 17.9492 21.5442 17.8127C21.4876 17.6762 21.4047 17.5523 21.3001 17.4479L16.8001 12.9479C16.6957 12.8433 16.5718 12.7604 16.4353 12.7038C16.2988 12.6472 16.1525 12.618 16.0047 12.618C15.857 12.618 15.7107 12.6472 15.5742 12.7038C15.4377 12.7604 15.3138 12.8433 15.2094 12.9479L13.4161 14.7411C12.5847 14.4936 11.0334 13.9311 10.0501 12.9479C9.06687 11.9646 8.50437 10.4132 8.25687 9.58187L10.0501 7.78863C10.1547 7.68424 10.2376 7.56026 10.2942 7.42378C10.3508 7.2873 10.38 7.141 10.38 6.99325C10.38 6.8455 10.3508 6.6992 10.2942 6.56272C10.2376 6.42624 10.1547 6.30226 10.0501 6.19788L5.55012 1.69787C5.33505 1.49487 5.05049 1.38179 4.75474 1.38179C4.459 1.38179 4.17444 1.49487 3.95937 1.69787L0.909494 4.74888C0.481994 5.17637 0.241244 5.76363 0.250244 6.36325C0.276119 7.96525 0.700243 13.5295 5.08549 17.9147C9.47074 22.3 15.035 22.723 16.637 22.7489ZM4.75587 4.084L7.66512 6.99325L6.21049 8.44788C6.07812 8.57988 5.98088 8.74292 5.92763 8.92212C5.87438 9.10132 5.86681 9.291 5.90562 9.47388C5.93262 9.60325 6.59299 12.6711 8.46049 14.5386C10.328 16.4061 13.3959 17.0665 13.5252 17.0935C13.7081 17.1325 13.8978 17.125 14.0771 17.0718C14.2563 17.0185 14.4194 16.9212 14.5512 16.7886L16.0059 15.334L18.9151 18.2432L16.6584 20.4989C15.2544 20.4753 10.4506 20.0984 6.67624 16.3229C2.88949 12.5361 2.52274 7.7155 2.50024 6.33963L4.75587 4.084ZM20.4991 10.3739H22.7491C22.7491 4.60262 18.392 0.25 12.6129 0.25V2.5C17.1826 2.5 20.4991 5.81087 20.4991 10.3739Z" fill="#F07B3F"/>
</svg>
