<svg width="14" height="12" viewBox="0 0 14 12" fill="none" xmlns="http://www.w3.org/2000/svg">
<path fill-rule="evenodd" clip-rule="evenodd" d="M10.2197 1.33333H12.333C13.0663 1.33333 13.6663 1.93333 13.6663 2.66667V10.6667C13.6663 11.4 13.0663 12 12.333 12H1.66634C0.933008 12 0.333008 11.4 0.333008 10.6667V2.66667C0.333008 1.93333 0.933008 1.33333 1.66634 1.33333H3.77967L4.99967 0H8.99967L10.2197 1.33333ZM1.66634 10.6667H12.333V2.66667H9.63301L8.41301 1.33333H5.58634L4.36634 2.66667H1.66634V10.6667ZM6.99967 3.33333C5.15967 3.33333 3.66634 4.82667 3.66634 6.66667C3.66634 8.50667 5.15967 10 6.99967 10C8.83967 10 10.333 8.50667 10.333 6.66667C10.333 4.82667 8.83967 3.33333 6.99967 3.33333ZM4.99967 6.66667C4.99967 7.76667 5.89967 8.66667 6.99967 8.66667C8.09967 8.66667 8.99967 7.76667 8.99967 6.66667C8.99967 5.56667 8.09967 4.66667 6.99967 4.66667C5.89967 4.66667 4.99967 5.56667 4.99967 6.66667Z" fill="#E7601A"/>
</svg>
