<svg width="14" height="14" viewBox="0 0 14 14" fill="none" xmlns="http://www.w3.org/2000/svg">
<path fill-rule="evenodd" clip-rule="evenodd" d="M4.99967 7.66665V3.66665L4.99967 1.66665H8.99967L8.99967 3.66665L8.99967 6.33331L8.99967 7.66665H9.86417L6.99967 10.3003L4.13518 7.66665H4.99967ZM10.333 6.33331L10.333 3.66665L10.333 1.66665C10.333 0.930267 9.73605 0.333313 8.99967 0.333313H4.99967C4.26329 0.333313 3.66634 0.930267 3.66634 1.66665V6.33331H0.333008L6.99967 12.0564L13.6663 6.33331H10.333ZM11.6663 13.6666C12.4027 13.6666 12.9997 13.0697 12.9997 12.3333H0.999674C0.999674 13.0697 1.59663 13.6666 2.33301 13.6666H11.6663Z" fill="#E7601A"/>
</svg>
