<svg width="23" height="20" viewBox="0 0 23 20" fill="none" xmlns="http://www.w3.org/2000/svg">
<path d="M20.6577 1.59158C19.6071 0.530377 18.1557 0 16.3027 0C15.7899 0 15.2666 0.0919776 14.7332 0.275843C14.1996 0.459843 13.7032 0.708084 13.2445 1.02038C12.7853 1.3326 12.3906 1.62579 12.0595 1.89952C11.7288 2.17334 11.4144 2.46433 11.1167 2.77227C10.8188 2.46433 10.5045 2.17334 10.1738 1.89952C9.84282 1.62579 9.44797 1.33278 8.98881 1.02038C8.52974 0.707949 8.03343 0.459888 7.49996 0.275843C6.96653 0.0920226 6.44327 0 5.93049 0C4.07764 0 2.62611 0.530512 1.57568 1.59158C0.525257 2.65256 0 4.1242 0 6.00664C0 6.57995 0.0973422 7.17057 0.291636 7.77777C0.485929 8.38529 0.707339 8.90303 0.955431 9.33078C1.20348 9.75848 1.48477 10.1756 1.79909 10.5821C2.11341 10.9885 2.34312 11.2686 2.4877 11.4226C2.63241 11.5766 2.74618 11.688 2.82888 11.7565L10.5708 19.4831C10.7197 19.6371 10.9016 19.7144 11.1167 19.7144C11.3317 19.7144 11.5138 19.6371 11.6626 19.4831L19.3922 11.7819C21.2864 9.82277 22.2334 7.89753 22.2334 6.00646C22.2334 4.12389 21.7082 2.65238 20.6577 1.59158ZM18.3127 10.5756L11.1167 17.7502L3.90838 10.5627C2.36159 8.96296 1.58833 7.44398 1.58833 6.00646C1.58833 5.31348 1.67724 4.7016 1.85498 4.17122C2.03284 3.64076 2.26029 3.21922 2.53737 2.90691C2.81449 2.59452 3.1515 2.34017 3.54851 2.14322C3.94575 1.94645 4.33447 1.81379 4.71488 1.74537C5.0953 1.67704 5.50053 1.64283 5.9307 1.64283C6.36075 1.64283 6.82404 1.7518 7.32031 1.97006C7.81649 2.18822 8.27348 2.46204 8.69114 2.79143C9.10888 3.12103 9.46662 3.42902 9.76451 3.71556C10.0622 4.00237 10.3103 4.26531 10.5088 4.50492C10.6576 4.69324 10.8604 4.78737 11.1167 4.78737C11.3731 4.78737 11.5757 4.69324 11.7247 4.50492C11.9232 4.26531 12.1714 4.00224 12.4691 3.71556C12.7669 3.42902 13.1247 3.12117 13.5423 2.79143C13.96 2.46204 14.417 2.18822 14.9134 1.97006C15.4095 1.75184 15.873 1.64283 16.303 1.64283C16.7331 1.64283 17.1382 1.67704 17.5188 1.74537C17.8994 1.81375 18.2881 1.94645 18.6852 2.14322C19.0822 2.34012 19.4192 2.59466 19.6963 2.90691C19.9734 3.21922 20.2009 3.64076 20.3788 4.17122C20.5563 4.7016 20.6452 5.31348 20.6452 6.00646C20.6452 7.44398 19.8678 8.96719 18.3127 10.5756Z" fill="#B8B6BF"/>
</svg>
