<svg width="24" height="21" viewBox="0 0 24 21" fill="none" xmlns="http://www.w3.org/2000/svg">
<path d="M22.2991 1.66077C21.165 0.553434 19.5983 0 17.5981 0C17.0445 0 16.4796 0.0959761 15.9038 0.287835C15.3278 0.479834 14.792 0.738866 14.2969 1.06474C13.8012 1.39053 13.3751 1.69647 13.0177 1.9821C12.6608 2.26782 12.3214 2.57147 12 2.89279C11.6785 2.57147 11.3392 2.26782 10.9822 1.9821C10.6249 1.69647 10.1987 1.39072 9.70304 1.06474C9.20749 0.738726 8.67174 0.479881 8.09588 0.287835C7.52007 0.096023 6.95524 0 6.40171 0C4.40164 0 2.83477 0.553575 1.70088 1.66077C0.566992 2.76788 0 4.30349 0 6.26777C0 6.866 0.105077 7.4822 0.314808 8.1159C0.524539 8.74983 0.763542 9.29008 1.03135 9.73642C1.29911 10.1827 1.60275 10.6181 1.94204 11.0422C2.28134 11.4664 2.5293 11.7585 2.68537 11.9194C2.84158 12.0799 2.96438 12.1961 3.05365 12.2674L11.4107 20.33C11.5714 20.4908 11.7678 20.5713 12 20.5713C12.2321 20.5713 12.4286 20.4908 12.5893 20.3303L20.933 12.2944C22.9777 10.25 24 8.241 24 6.26777C24 4.30349 23.4329 2.76788 22.2991 1.66077Z" fill="#9498AC"/>
</svg>
