<svg width="213" height="42" viewBox="0 0 213 42" fill="none" xmlns="http://www.w3.org/2000/svg">
<path d="M42 19.9996C42.0008 21.3589 41.8635 22.7147 41.5901 24.0462C40.7115 23.8425 39.7891 23.9569 38.9869 24.3692C38.1846 24.7815 37.5546 25.4648 37.2086 26.2979C36.8627 27.1309 36.8232 28.0596 37.0973 28.919C37.3714 29.7784 37.9413 30.5127 38.7057 30.9915C36.2481 34.7075 32.629 37.5047 28.4137 38.9461V30.1708C33.3422 27.1053 35.3848 20.8908 33.1076 15.3976C32.5036 13.9379 31.618 12.6115 30.5014 11.4943C29.3848 10.377 28.059 9.4906 26.5998 8.88582C25.1406 8.28104 23.5766 7.96967 21.9971 7.96951C20.4176 7.96935 18.8535 8.2804 17.3942 8.88489C11.2578 11.4269 8.30694 18.4645 10.8502 24.6024C11.839 26.9919 13.6282 28.8884 15.5057 30.1692V38.9445C11.4377 37.5042 7.68266 34.6727 5.25752 30.9899C6.02311 30.513 6.5952 29.7805 6.87241 28.9221C7.14963 28.0637 7.11408 27.1349 6.77206 26.3002C6.42898 25.4679 5.80173 24.7843 5.00194 24.3711C4.20216 23.9579 3.28172 23.8419 2.40445 24.0438C1.86282 21.3741 1.86522 18.6226 2.4115 15.9538C3.28979 16.157 4.21166 16.0422 5.01335 15.6299C5.81504 15.2176 6.44464 14.5344 6.79034 13.7018C7.13603 12.8691 7.17542 11.9408 6.90152 11.0819C6.62762 10.2229 6.05816 9.48885 5.29429 9.01007C6.79151 6.73484 8.73681 4.78878 11.0114 3.29076C11.4891 4.05689 12.2232 4.62858 13.083 4.90404C13.9428 5.1795 14.8724 5.14084 15.7063 4.79496C16.5403 4.44908 17.2244 3.81842 17.637 3.01527C18.0495 2.21213 18.1636 1.28862 17.959 0.409194C20.6272 -0.136398 23.3783 -0.136398 26.0465 0.409194C25.8461 1.28709 25.9628 2.20759 26.376 3.00764C26.7893 3.80768 27.4723 4.43563 28.3041 4.78023C29.136 5.12483 30.0629 5.16385 30.9208 4.89036C31.7786 4.61688 32.512 4.04856 32.991 3.28606C35.2655 4.78498 37.2112 6.73117 38.7096 9.00616C37.944 9.48386 37.3728 10.2178 37.0976 11.0773C36.8224 11.9368 36.8611 12.8661 37.2068 13.6997C37.5525 14.5333 38.1828 15.2172 38.9855 15.6295C39.7882 16.0419 40.7112 16.156 41.5901 15.9515C41.8637 17.2835 42.001 18.6398 42 19.9996Z" fill="url(#paint0_linear)"/>
<path d="M31.0548 19.9997C31.0579 21.7977 30.5257 23.5559 29.5259 25.0502C28.5261 26.5445 27.104 27.7072 25.441 28.3901V39.7091C25.441 39.7091 25.3823 39.7138 25.3682 39.7153C24.257 39.9051 23.1316 40.0004 22.0043 40.0001C20.8759 39.9969 19.7494 39.904 18.6357 39.7224V28.3901C16.9724 27.7073 15.55 26.5447 14.5498 25.0504C13.5496 23.5562 13.0169 21.7979 13.0195 19.9997C13.0195 16.4203 15.0371 13.3267 18.1663 11.8628V20.139L21.9597 22.4079L25.7547 20.139V11.79C28.8831 13.2226 31.0548 16.36 31.0548 19.9997Z" fill="white"/>
<path d="M57.344 27V15.8H59.808V20.232H64.352V15.8H66.816V27H64.352V22.504H59.808V27H57.344ZM69.5003 27V15.8H77.9483V17.992H71.9483V20.264H77.2283V22.456H71.9483V24.808H78.0283V27H69.5003ZM79.259 27L84.059 15.72H86.331L91.131 27H88.555L87.531 24.488H82.795L81.771 27H79.259ZM83.675 22.312H86.651L85.163 18.68L83.675 22.312ZM94.8339 27.08L90.3059 15.8H93.0259L95.9539 23.688L98.8819 15.8H101.538L97.0099 27.08H94.8339ZM106.105 27V22.584L101.801 15.8H104.681L107.353 20.296L110.073 15.8H112.873L108.569 22.536V27H106.105ZM121.811 27V18.072H118.403V15.8H127.683V18.072H124.275V27H121.811ZM129.578 27V15.8H138.026V17.992H132.026V20.264H137.306V22.456H132.026V24.808H138.106V27H129.578ZM145.545 27.192C143.902 27.192 142.532 26.6373 141.433 25.528C140.345 24.408 139.801 23.032 139.801 21.4C139.801 19.7787 140.35 18.408 141.449 17.288C142.548 16.168 143.945 15.608 145.641 15.608C146.612 15.608 147.428 15.768 148.089 16.088C148.75 16.3973 149.38 16.8453 149.977 17.432L148.505 19.128C148.025 18.6907 147.572 18.376 147.145 18.184C146.729 17.9813 146.222 17.88 145.625 17.88C144.686 17.88 143.908 18.2213 143.289 18.904C142.681 19.576 142.377 20.408 142.377 21.4C142.377 22.3813 142.681 23.2133 143.289 23.896C143.908 24.5787 144.686 24.92 145.625 24.92C146.222 24.92 146.74 24.8133 147.177 24.6C147.614 24.3867 148.078 24.056 148.569 23.608L150.137 25.288C149.529 25.9387 148.868 26.4187 148.153 26.728C147.449 27.0373 146.58 27.192 145.545 27.192ZM152.11 27V15.8H154.574V20.232H159.118V15.8H161.582V27H159.118V22.504H154.574V27H152.11ZM168.25 27.16C166.415 27.16 164.831 26.5627 163.498 25.368L164.954 23.624C166.053 24.5307 167.167 24.984 168.298 24.984C168.799 24.984 169.194 24.888 169.482 24.696C169.77 24.504 169.914 24.2373 169.914 23.896C169.914 23.576 169.765 23.32 169.466 23.128C169.167 22.9253 168.565 22.7067 167.658 22.472C167.018 22.312 166.501 22.1573 166.106 22.008C165.711 21.848 165.333 21.64 164.97 21.384C164.618 21.128 164.357 20.808 164.186 20.424C164.026 20.0293 163.946 19.56 163.946 19.016C163.946 18.0027 164.309 17.1867 165.034 16.568C165.77 15.9493 166.714 15.64 167.866 15.64C169.455 15.64 170.842 16.1147 172.026 17.064L170.746 18.92C169.69 18.184 168.719 17.816 167.834 17.816C167.375 17.816 167.018 17.912 166.762 18.104C166.517 18.2853 166.394 18.5253 166.394 18.824C166.394 19.1867 166.549 19.4587 166.858 19.64C167.167 19.8213 167.818 20.04 168.81 20.296C170.026 20.616 170.922 21.0267 171.498 21.528C172.074 22.0293 172.362 22.7493 172.362 23.688C172.362 24.776 171.983 25.6293 171.226 26.248C170.479 26.856 169.487 27.16 168.25 27.16Z" fill="white"/>
<defs>
<linearGradient id="paint0_linear" x1="21.9996" y1="38.9461" x2="21.9996" y2="0" gradientUnits="userSpaceOnUse">
<stop stop-color="#FF512F"/>
<stop offset="1" stop-color="#F09819"/>
</linearGradient>
</defs>
</svg>
