<svg width="22" height="22" viewBox="0 0 22 22" fill="none" xmlns="http://www.w3.org/2000/svg">
<path d="M18.5 1H3.5C2.11937 1 1 2.11937 1 3.5V13.5C1 14.8806 2.11937 16 3.5 16H7.25L12.25 21V16H18.5C19.8806 16 21 14.8806 21 13.5V3.5C21 2.11937 19.8806 1 18.5 1ZM19.75 13.5C19.75 14.1897 19.1891 14.75 18.5 14.75H11V17.9825L7.76766 14.75H3.5C2.81094 14.75 2.25 14.1897 2.25 13.5V3.5C2.25 2.81031 2.81094 2.25 3.5 2.25H18.5C19.1891 2.25 19.75 2.81031 19.75 3.5V13.5ZM4.75 5.375C4.75 5.72018 5.02982 6 5.375 6H16.625C16.9702 6 17.25 5.72018 17.25 5.375C17.25 5.02982 16.9702 4.75 16.625 4.75H5.375C5.02982 4.75 4.75 5.02982 4.75 5.375ZM4.75 7.875C4.75 8.22018 5.02982 8.5 5.375 8.5H16.625C16.9702 8.5 17.25 8.22018 17.25 7.875C17.25 7.52982 16.9702 7.25 16.625 7.25H5.375C5.02982 7.25 4.75 7.52982 4.75 7.875ZM4.75 10.375C4.75 10.7202 5.02982 11 5.375 11H11.625C11.9702 11 12.25 10.7202 12.25 10.375C12.25 10.0298 11.9702 9.75 11.625 9.75H5.375C5.02982 9.75 4.75 10.0298 4.75 10.375Z" fill="#DFE3EC" stroke="#DFE3EC" stroke-width="0.6"/>
</svg>
