<svg width="20" height="16" viewBox="0 0 20 16" fill="none" xmlns="http://www.w3.org/2000/svg">
<path d="M19.1666 0.500079C18.3686 1.06298 17.485 1.4935 16.5499 1.77508C16.048 1.198 15.381 0.788989 14.6391 0.603351C13.8972 0.417713 13.1162 0.464409 12.4017 0.737123C11.6871 1.00984 11.0736 1.49541 10.6441 2.12818C10.2145 2.76094 9.98967 3.51036 9.99992 4.27508V5.10841C8.53545 5.14639 7.08431 4.82159 5.77576 4.16295C4.4672 3.50431 3.34185 2.53228 2.49992 1.33341C2.49992 1.33341 -0.833415 8.83341 6.66658 12.1667C4.95036 13.3317 2.90588 13.9159 0.833252 13.8334C8.33325 18.0001 17.4999 13.8334 17.4999 4.25008C17.4991 4.01796 17.4768 3.78641 17.4333 3.55841C18.2838 2.71966 18.8839 1.66067 19.1666 0.500079Z" fill="#F07B3F"/>
</svg>
