<svg width="32" height="24" viewBox="0 0 32 24" fill="none" xmlns="http://www.w3.org/2000/svg">
<path d="M25.913 8.16351C25.475 3.60051 21.676 0.0205078 16.999 0.0205078C13.38 0.0205078 10.281 2.16851 8.853 5.25051C8.423 5.11351 7.975 5.02051 7.5 5.02051C5.015 5.02051 3 7.03651 3 9.52051C3 10.0145 3.099 10.4815 3.246 10.9245C1.313 12.0515 0 14.1205 0 16.5185C0 20.1085 2.91 23.0185 6.5 23.0185V23.0205H24.499V23.0185C28.643 23.0185 31.998 19.6615 31.998 15.5185C31.998 11.8625 29.378 8.82551 25.913 8.16351ZM19.779 13.9205H17.999V17.9325C17.999 18.4855 17.553 18.9345 16.999 18.9345H14.999C14.447 18.9345 13.999 18.4855 13.999 17.9325V13.9205H12.218C11.132 13.9205 10.689 13.1955 11.231 12.3115L15.012 8.58451C15.753 7.84451 16.222 7.81951 16.986 8.58451L20.767 12.3115C21.311 13.1965 20.865 13.9205 19.779 13.9205Z" fill="#8589A0"/>
</svg>
