<svg width="18" height="16" viewBox="0 0 18 16" fill="none" xmlns="http://www.w3.org/2000/svg">
<path fill-rule="evenodd" clip-rule="evenodd" d="M9.87523 1.51666C9.69921 1.19801 9.36393 1.00018 8.9999 1.00018C8.63586 1.00018 8.30058 1.19801 8.12456 1.51666L1.62456 13.5167C1.45355 13.8264 1.45895 14.2035 1.63877 14.5082C1.8186 14.8129 2.14607 15 2.4999 15H15.4999C15.8537 15 16.1812 14.8129 16.361 14.5082C16.5408 14.2035 16.5462 13.8264 16.3752 13.5167L9.87523 1.51666Z" stroke="#F3B14E" stroke-width="1.2" stroke-linecap="round" stroke-linejoin="round"/>
<path d="M9 12C9.13807 12 9.25 12.1119 9.25 12.25" stroke="#F3B14E" stroke-width="1.2" stroke-linecap="round" stroke-linejoin="round"/>
<path d="M8.75 12.25C8.75 12.1119 8.86193 12 9 12" stroke="#F3B14E" stroke-width="1.2" stroke-linecap="round" stroke-linejoin="round"/>
<path d="M9 12.5C8.86193 12.5 8.75 12.3881 8.75 12.25" stroke="#F3B14E" stroke-width="1.2" stroke-linecap="round" stroke-linejoin="round"/>
<path d="M9.25 12.25C9.25 12.3881 9.13807 12.5 9 12.5" stroke="#F3B14E" stroke-width="1.2" stroke-linecap="round" stroke-linejoin="round"/>
<path d="M9 10V5.5" stroke="#F3B14E" stroke-width="1.2" stroke-linecap="round" stroke-linejoin="round"/>
</svg>
